<svg width="32" height="32" viewBox="0 0 32 32" fill="none" xmlns="http://www.w3.org/2000/svg">
<path d="M11.9999 12C11.9999 11.8687 12.0257 11.7386 12.076 11.6173C12.1262 11.4959 12.1999 11.3857 12.2927 11.2928C12.3856 11.2 12.4958 11.1263 12.6172 11.0761C12.7385 11.0258 12.8686 11 12.9999 11H13.9999C14.2651 11 14.5195 11.1054 14.707 11.2929C14.8945 11.4804 14.9999 11.7348 14.9999 12C14.9999 12.2652 14.8945 12.5196 14.707 12.7071C14.5195 12.8946 14.2651 13 13.9999 13H12.9999C12.8686 13 12.7385 12.9742 12.6172 12.9239C12.4958 12.8737 12.3856 12.8 12.2927 12.7072C12.1999 12.6143 12.1262 12.5041 12.076 12.3827C12.0257 12.2614 11.9999 12.1313 11.9999 12V12ZM15.2431 8.65723C15.431 8.84319 15.685 8.94716 15.9494 8.94641C16.2138 8.94566 16.4671 8.84024 16.654 8.65322C16.841 8.46619 16.9462 8.21277 16.9468 7.94836C16.9474 7.68395 16.8432 7.43007 16.6571 7.24223L15.7567 6.34281C15.5688 6.15685 15.3148 6.05288 15.0504 6.05363C14.786 6.05438 14.5327 6.1598 14.3458 6.34682C14.1589 6.53385 14.0536 6.78727 14.053 7.05168C14.0525 7.31609 14.1566 7.56997 14.3427 7.75781L15.2431 8.65723ZM24.0497 8.94971C24.181 8.94984 24.311 8.92407 24.4323 8.87389C24.5537 8.8237 24.6639 8.75008 24.7567 8.65723L25.6571 7.75781C25.8432 7.56997 25.9473 7.31609 25.9467 7.05168C25.9462 6.78727 25.8409 6.53385 25.654 6.34682C25.4671 6.1598 25.2138 6.05438 24.9493 6.05363C24.6849 6.05288 24.431 6.15685 24.243 6.34281L23.3426 7.24223C23.2029 7.38215 23.1077 7.56034 23.0692 7.7543C23.0307 7.94826 23.0505 8.14929 23.1261 8.332C23.2018 8.51471 23.3299 8.67091 23.4942 8.78086C23.6586 8.8908 23.8519 8.94958 24.0496 8.94975L24.0497 8.94971ZM19.9999 7C20.1312 7.00003 20.2613 6.97419 20.3826 6.92395C20.504 6.87371 20.6142 6.80005 20.7071 6.70718C20.8 6.61432 20.8736 6.50406 20.9239 6.38272C20.9741 6.26138 20.9999 6.13133 20.9999 6V5C20.9999 4.73478 20.8945 4.48043 20.707 4.29289C20.5195 4.10536 20.2651 4 19.9999 4C19.7347 4 19.4803 4.10536 19.2928 4.29289C19.1053 4.48043 18.9999 4.73478 18.9999 5V6C18.9999 6.13133 19.0257 6.26138 19.076 6.38272C19.1262 6.50406 19.1999 6.61432 19.2927 6.70718C19.3856 6.80005 19.4958 6.87371 19.6172 6.92395C19.7385 6.97419 19.8686 7.00003 19.9999 7V7ZM19.9999 17C19.8686 17 19.7385 17.0258 19.6172 17.0761C19.4958 17.1263 19.3856 17.2 19.2927 17.2928C19.1999 17.3857 19.1262 17.4959 19.076 17.6173C19.0257 17.7386 18.9999 17.8687 18.9999 18V19C18.9999 19.2652 19.1053 19.5196 19.2928 19.7071C19.4803 19.8946 19.7347 20 19.9999 20C20.2651 20 20.5195 19.8946 20.707 19.7071C20.8945 19.5196 20.9999 19.2652 20.9999 19V18C20.9999 17.8687 20.9741 17.7386 20.9239 17.6173C20.8736 17.4959 20.8 17.3857 20.7071 17.2928C20.6142 17.2 20.504 17.1263 20.3826 17.0761C20.2613 17.0258 20.1312 17 19.9999 17V17ZM24.7567 15.3428C24.5688 15.1568 24.3148 15.0528 24.0504 15.0536C23.786 15.0543 23.5327 15.1598 23.3458 15.3468C23.1589 15.5338 23.0536 15.7872 23.053 16.0516C23.0525 16.316 23.1566 16.5699 23.3427 16.7578L24.2431 17.6572C24.431 17.8432 24.685 17.9471 24.9494 17.9464C25.2138 17.9456 25.4671 17.8402 25.654 17.6532C25.841 17.4662 25.9462 17.2127 25.9468 16.9483C25.9474 16.6839 25.8432 16.43 25.6571 16.2422L24.7567 15.3428ZM26.9999 11H25.9999C25.7347 11 25.4803 11.1054 25.2928 11.2929C25.1053 11.4804 24.9999 11.7348 24.9999 12C24.9999 12.2652 25.1053 12.5196 25.2928 12.7071C25.4803 12.8946 25.7347 13 25.9999 13H26.9999C27.2651 13 27.5195 12.8946 27.707 12.7071C27.8945 12.5196 27.9999 12.2652 27.9999 12C27.9999 11.7348 27.8945 11.4804 27.707 11.2929C27.5195 11.1054 27.2651 11 26.9999 11ZM22.8136 10.6006L21.3994 9.18628C21.2119 8.99875 20.9575 8.8934 20.6923 8.8934C20.4271 8.8934 20.1727 8.99875 19.9852 9.18628L16.7928 12.3787L19.6212 15.207L22.8136 12.0146C22.9065 11.9218 22.9801 11.8115 23.0304 11.6902C23.0806 11.5689 23.1065 11.4389 23.1065 11.3076C23.1065 11.1763 23.0806 11.0463 23.0304 10.925C22.9801 10.8037 22.9065 10.6934 22.8136 10.6006V10.6006ZM4.68618 24.4853C4.59333 24.5782 4.51968 24.6884 4.46943 24.8097C4.41918 24.931 4.39331 25.0611 4.39331 25.1924C4.39331 25.3237 4.41918 25.4537 4.46943 25.575C4.51968 25.6963 4.59333 25.8066 4.68618 25.8994L6.10043 27.3137C6.28796 27.5012 6.54231 27.6066 6.80752 27.6066C7.07273 27.6066 7.32708 27.5012 7.51462 27.3137L18.2071 16.6213L15.3786 13.7928L4.68618 24.4853Z" fill="white"/>
</svg>
